STARTFONT 2.1
FONT -FontForge-Avenir Next Demi Bold-Demi-R-Normal--18-170-75-75-P-98-ISO10646-1
SIZE 17 75 75
FONTBOUNDINGBOX 19 19 -1 -5
COMMENT "Generated by fontforge, http://fontforge.sourceforge.net"
COMMENT "Copyright (c) 2004 - 2007 Linotype GmbH, www.linotype.com. All rights reserved."
STARTPROPERTIES 39
FOUNDRY "FontForge"
FAMILY_NAME "Avenir Next Demi Bold"
WEIGHT_NAME "Demi"
SLANT "R"
SETWIDTH_NAME "Normal"
ADD_STYLE_NAME ""
PIXEL_SIZE 18
POINT_SIZE 170
RESOLUTION_X 75
RESOLUTION_Y 75
SPACING "P"
AVERAGE_WIDTH 98
CHARSET_REGISTRY "ISO10646"
CHARSET_ENCODING "1"
FONTNAME_REGISTRY ""
CHARSET_COLLECTIONS "ISO10646-1"
FONT_NAME "AvenirNext-DemiBold"
FACE_NAME "Avenir Next Demi Bold"
COPYRIGHT "Copyright (c) 2004 - 2007 Linotype GmbH, www.linotype.com. All rights reserved."
FONT_VERSION "13.0d1e10"
FONT_ASCENT 14
FONT_DESCENT 4
UNDERLINE_POSITION -2
UNDERLINE_THICKNESS 1
X_HEIGHT 8
CAP_HEIGHT 12
RAW_ASCENT 800
RAW_DESCENT 200
NORM_SPACE 5
RELATIVE_WEIGHT 60
RELATIVE_SETWIDTH 50
SUPERSCRIPT_X 0
SUPERSCRIPT_Y 8
SUPERSCRIPT_SIZE 11
SUBSCRIPT_X 0
SUBSCRIPT_Y 2
SUBSCRIPT_SIZE 11
AVG_LOWERCASE_WIDTH 93
AVG_UPPERCASE_WIDTH 119
ENDPROPERTIES
CHARS 95
STARTCHAR space
ENCODING 32
SWIDTH 250 0
DWIDTH 5 0
BBX 1 1 0 0
BITMAP
00
ENDCHAR
STARTCHAR exclam
ENCODING 33
SWIDTH 340 0
DWIDTH 6 0
BBX 2 13 2 0
BITMAP
C0
C0
C0
C0
C0
C0
C0
C0
C0
00
00
C0
C0
ENDCHAR
STARTCHAR quotedbl
ENCODING 34
SWIDTH 459 0
DWIDTH 9 0
BBX 5 5 2 8
BITMAP
D8
D8
D8
D8
D8
ENDCHAR
STARTCHAR numbersign
ENCODING 35
SWIDTH 592 0
DWIDTH 11 0
BBX 9 13 1 0
BITMAP
1300
1300
3200
3200
FF80
2600
2600
2600
FF00
6400
6400
6400
6C00
ENDCHAR
STARTCHAR dollar
ENCODING 36
SWIDTH 610 0
DWIDTH 11 0
BBX 9 15 1 -1
BITMAP
0800
3E00
7F80
E900
C800
C800
7800
3E00
0F00
0980
0980
CB80
FF00
3E00
0800
ENDCHAR
STARTCHAR percent
ENCODING 37
SWIDTH 930 0
DWIDTH 17 0
BBX 15 14 1 -1
BITMAP
3830
7C60
C660
C6C0
C6C0
7D80
3B38
037C
06C6
06C6
0CC6
0C7C
1838
1000
ENDCHAR
STARTCHAR ampersand
ENCODING 38
SWIDTH 741 0
DWIDTH 13 0
BBX 12 13 1 0
BITMAP
3E00
7F00
6300
6300
6300
3E00
7C70
EEE0
C7C0
C380
E3C0
7FE0
3C70
ENDCHAR
STARTCHAR quotesingle
ENCODING 39
SWIDTH 282 0
DWIDTH 5 0
BBX 2 5 2 8
BITMAP
C0
C0
C0
C0
C0
ENDCHAR
STARTCHAR parenleft
ENCODING 40
SWIDTH 330 0
DWIDTH 6 0
BBX 4 16 1 -3
BITMAP
20
30
60
60
C0
C0
C0
C0
C0
C0
C0
C0
60
60
30
20
ENDCHAR
STARTCHAR parenright
ENCODING 41
SWIDTH 330 0
DWIDTH 6 0
BBX 4 16 1 -3
BITMAP
C0
C0
60
60
60
30
30
30
30
30
30
60
60
60
C0
C0
ENDCHAR
STARTCHAR asterisk
ENCODING 42
SWIDTH 463 0
DWIDTH 8 0
BBX 8 7 0 6
BITMAP
18
18
FF
7E
3C
6E
24
ENDCHAR
STARTCHAR plus
ENCODING 43
SWIDTH 666 0
DWIDTH 12 0
BBX 10 10 1 0
BITMAP
0C00
0C00
0C00
0C00
FFC0
FFC0
0C00
0C00
0C00
0C00
ENDCHAR
STARTCHAR comma
ENCODING 44
SWIDTH 260 0
DWIDTH 5 0
BBX 3 5 1 -2
BITMAP
60
60
40
C0
C0
ENDCHAR
STARTCHAR hyphen
ENCODING 45
SWIDTH 320 0
DWIDTH 6 0
BBX 4 2 1 3
BITMAP
F0
F0
ENDCHAR
STARTCHAR period
ENCODING 46
SWIDTH 260 0
DWIDTH 4 0
BBX 2 2 1 0
BITMAP
C0
C0
ENDCHAR
STARTCHAR slash
ENCODING 47
SWIDTH 389 0
DWIDTH 7 0
BBX 7 15 0 -1
BITMAP
04
06
04
0C
0C
18
18
10
30
30
60
60
40
C0
80
ENDCHAR
STARTCHAR zero
ENCODING 48
SWIDTH 610 0
DWIDTH 11 0
BBX 9 13 1 0
BITMAP
1E00
7F00
6300
E180
C180
C180
C180
C180
C180
E180
6300
7F00
1E00
ENDCHAR
STARTCHAR one
ENCODING 49
SWIDTH 610 0
DWIDTH 11 0
BBX 6 13 1 0
BITMAP
0C
3C
7C
EC
4C
0C
0C
0C
0C
0C
0C
0C
0C
ENDCHAR
STARTCHAR two
ENCODING 50
SWIDTH 610 0
DWIDTH 11 0
BBX 8 13 2 0
BITMAP
3C
7E
E7
C3
03
07
06
0C
38
70
E0
FF
FF
ENDCHAR
STARTCHAR three
ENCODING 51
SWIDTH 610 0
DWIDTH 10 0
BBX 9 13 0 0
BITMAP
1E00
3F00
7180
2180
0380
0F00
0F00
0380
0180
4180
E380
7F00
3E00
ENDCHAR
STARTCHAR four
ENCODING 52
SWIDTH 610 0
DWIDTH 11 0
BBX 10 13 0 0
BITMAP
0700
0700
0F00
1B00
1B00
3300
6300
6300
FFC0
FFC0
0300
0300
0300
ENDCHAR
STARTCHAR five
ENCODING 53
SWIDTH 610 0
DWIDTH 11 0
BBX 9 13 1 0
BITMAP
7F80
7F80
6000
6000
6000
7E00
7F00
4380
0180
4180
E380
7F00
3E00
ENDCHAR
STARTCHAR six
ENCODING 54
SWIDTH 610 0
DWIDTH 11 0
BBX 9 13 1 0
BITMAP
0E00
1C00
1800
3800
3000
7E00
FF00
E380
C180
C180
E380
7F00
3E00
ENDCHAR
STARTCHAR seven
ENCODING 55
SWIDTH 610 0
DWIDTH 11 0
BBX 9 13 1 0
BITMAP
FF80
FF80
0380
0300
0700
0600
0E00
0C00
1C00
1800
3800
3000
7000
ENDCHAR
STARTCHAR eight
ENCODING 56
SWIDTH 610 0
DWIDTH 10 0
BBX 8 13 1 0
BITMAP
3C
7E
C3
C3
C7
7E
7E
E7
C3
C3
E7
7E
3C
ENDCHAR
STARTCHAR nine
ENCODING 57
SWIDTH 610 0
DWIDTH 11 0
BBX 9 13 1 0
BITMAP
3E00
7F00
E380
C180
C180
C180
E380
7F00
3E00
0600
0C00
1C00
3800
ENDCHAR
STARTCHAR colon
ENCODING 58
SWIDTH 300 0
DWIDTH 5 0
BBX 2 9 2 0
BITMAP
C0
C0
00
00
00
00
00
C0
C0
ENDCHAR
STARTCHAR semicolon
ENCODING 59
SWIDTH 300 0
DWIDTH 5 0
BBX 3 11 1 -2
BITMAP
60
60
00
00
00
00
60
60
C0
C0
C0
ENDCHAR
STARTCHAR less
ENCODING 60
SWIDTH 666 0
DWIDTH 11 0
BBX 9 9 1 1
BITMAP
0080
0380
1F00
7800
E000
7800
1F00
0380
0080
ENDCHAR
STARTCHAR equal
ENCODING 61
SWIDTH 666 0
DWIDTH 11 0
BBX 9 5 1 3
BITMAP
FF80
FF80
0000
FF80
FF80
ENDCHAR
STARTCHAR greater
ENCODING 62
SWIDTH 666 0
DWIDTH 11 0
BBX 9 9 1 1
BITMAP
8000
E000
7C00
0F00
0380
0F00
7C00
E000
8000
ENDCHAR
STARTCHAR question
ENCODING 63
SWIDTH 519 0
DWIDTH 10 0
BBX 8 13 1 0
BITMAP
3C
7E
63
E3
03
06
0C
18
18
00
00
18
18
ENDCHAR
STARTCHAR at
ENCODING 64
SWIDTH 800 0
DWIDTH 15 0
BBX 14 13 0 0
BITMAP
0FC0
1030
2018
63EC
C6EC
CCCC
CCCC
CCCC
CDD8
67F0
6010
3038
0FE0
ENDCHAR
STARTCHAR A
ENCODING 65
SWIDTH 706 0
DWIDTH 13 0
BBX 13 13 0 0
BITMAP
0700
0700
0F00
0D80
1D80
19C0
18C0
38E0
3FE0
7FE0
6070
E030
E038
ENDCHAR
STARTCHAR B
ENCODING 66
SWIDTH 647 0
DWIDTH 11 0
BBX 8 13 2 0
BITMAP
FE
FF
C3
C3
C3
FE
FE
C3
C3
C3
C7
FE
FC
ENDCHAR
STARTCHAR C
ENCODING 67
SWIDTH 696 0
DWIDTH 13 0
BBX 11 13 1 0
BITMAP
0F80
3FE0
70C0
6000
C000
C000
C000
C000
C000
6000
70E0
3FE0
0F80
ENDCHAR
STARTCHAR D
ENCODING 68
SWIDTH 764 0
DWIDTH 14 0
BBX 12 13 1 0
BITMAP
FF00
FFC0
C1E0
C060
C030
C030
C030
C030
C030
C060
C1E0
FFC0
FF00
ENDCHAR
STARTCHAR E
ENCODING 69
SWIDTH 610 0
DWIDTH 11 0
BBX 9 13 2 0
BITMAP
FF00
FF00
C000
C000
C000
FF00
FF00
C000
C000
C000
C000
FF80
FF80
ENDCHAR
STARTCHAR F
ENCODING 70
SWIDTH 573 0
DWIDTH 10 0
BBX 8 13 2 0
BITMAP
FF
FF
C0
C0
C0
C0
FF
FF
C0
C0
C0
C0
C0
ENDCHAR
STARTCHAR G
ENCODING 71
SWIDTH 773 0
DWIDTH 13 0
BBX 11 13 1 0
BITMAP
0F80
3FE0
70C0
6000
C000
C000
C3E0
C3E0
C060
6060
7060
3FE0
0FC0
ENDCHAR
STARTCHAR H
ENCODING 72
SWIDTH 739 0
DWIDTH 13 0
BBX 11 13 1 0
BITMAP
C060
C060
C060
C060
C060
FFE0
FFE0
C060
C060
C060
C060
C060
C060
ENDCHAR
STARTCHAR I
ENCODING 73
SWIDTH 282 0
DWIDTH 5 0
BBX 2 13 2 0
BITMAP
C0
C0
C0
C0
C0
C0
C0
C0
C0
C0
C0
C0
C0
ENDCHAR
STARTCHAR J
ENCODING 74
SWIDTH 498 0
DWIDTH 9 0
BBX 7 13 1 0
BITMAP
06
06
06
06
06
06
06
06
06
06
C6
FC
78
ENDCHAR
STARTCHAR K
ENCODING 75
SWIDTH 689 0
DWIDTH 12 0
BBX 11 13 2 0
BITMAP
C1C0
C380
C700
CE00
DC00
F800
F800
DC00
CE00
C700
C380
C380
C1E0
ENDCHAR
STARTCHAR L
ENCODING 76
SWIDTH 511 0
DWIDTH 9 0
BBX 7 13 2 0
BITMAP
C0
C0
C0
C0
C0
C0
C0
C0
C0
C0
C0
FE
FE
ENDCHAR
STARTCHAR M
ENCODING 77
SWIDTH 920 0
DWIDTH 16 0
BBX 14 13 1 0
BITMAP
F03C
F03C
F87C
F87C
D86C
DCEC
CCCC
CCCC
CFCC
C78C
C78C
C30C
C30C
ENDCHAR
STARTCHAR N
ENCODING 78
SWIDTH 780 0
DWIDTH 13 0
BBX 11 13 1 0
BITMAP
E060
F060
F860
F860
DC60
CC60
CE60
C760
C760
C3E0
C1E0
C1E0
C0E0
ENDCHAR
STARTCHAR O
ENCODING 79
SWIDTH 849 0
DWIDTH 15 0
BBX 13 13 1 0
BITMAP
0F80
3FE0
7070
6030
C018
C018
C018
C018
C018
6030
7070
3FE0
0F80
ENDCHAR
STARTCHAR P
ENCODING 80
SWIDTH 610 0
DWIDTH 11 0
BBX 9 13 1 0
BITMAP
FE00
FF00
C380
C180
C180
C380
FF00
FE00
C000
C000
C000
C000
C000
ENDCHAR
STARTCHAR Q
ENCODING 81
SWIDTH 852 0
DWIDTH 15 0
BBX 14 13 1 0
BITMAP
0F80
3FE0
7070
6030
C018
C018
C018
C018
C018
6030
7070
3FFC
0FFC
ENDCHAR
STARTCHAR R
ENCODING 82
SWIDTH 629 0
DWIDTH 11 0
BBX 10 13 1 0
BITMAP
FE00
FF00
C380
C180
C180
C380
FF00
FE00
CE00
C600
C700
C380
C1C0
ENDCHAR
STARTCHAR S
ENCODING 83
SWIDTH 574 0
DWIDTH 10 0
BBX 9 13 0 0
BITMAP
1F00
3F80
7100
6000
6000
3800
1F00
0780
0180
0180
6380
FF00
3E00
ENDCHAR
STARTCHAR T
ENCODING 84
SWIDTH 568 0
DWIDTH 10 0
BBX 10 13 0 0
BITMAP
FFC0
FFC0
0C00
0C00
0C00
0C00
0C00
0C00
0C00
0C00
0C00
0C00
0C00
ENDCHAR
STARTCHAR U
ENCODING 85
SWIDTH 714 0
DWIDTH 12 0
BBX 10 13 1 0
BITMAP
C0C0
C0C0
C0C0
C0C0
C0C0
C0C0
C0C0
C0C0
C0C0
C0C0
6180
7F80
1E00
ENDCHAR
STARTCHAR V
ENCODING 86
SWIDTH 653 0
DWIDTH 12 0
BBX 12 13 0 0
BITMAP
E070
E060
6060
60E0
30C0
30C0
3180
1980
1980
0B00
0F00
0E00
0600
ENDCHAR
STARTCHAR W
ENCODING 87
SWIDTH 1004 0
DWIDTH 18 0
BBX 18 13 0 0
BITMAP
E0C1C0
61E1C0
61E180
61E180
71F380
333300
333300
3B3300
1E1F00
1E1E00
1E1E00
1C0E00
0C0C00
ENDCHAR
STARTCHAR X
ENCODING 88
SWIDTH 658 0
DWIDTH 12 0
BBX 12 13 0 0
BITMAP
70E0
70C0
39C0
1B80
1F00
0F00
0E00
0F00
1B80
3980
31C0
70E0
E070
ENDCHAR
STARTCHAR Y
ENCODING 89
SWIDTH 622 0
DWIDTH 11 0
BBX 12 13 0 0
BITMAP
E070
70E0
30C0
39C0
1D80
0F00
0F00
0600
0600
0600
0600
0600
0600
ENDCHAR
STARTCHAR Z
ENCODING 90
SWIDTH 611 0
DWIDTH 11 0
BBX 9 13 1 0
BITMAP
FF80
FF80
0380
0700
0600
0E00
1C00
3800
7000
6000
E000
FF80
FF80
ENDCHAR
STARTCHAR bracketleft
ENCODING 91
SWIDTH 330 0
DWIDTH 6 0
BBX 4 16 1 -3
BITMAP
F0
C0
C0
C0
C0
C0
C0
C0
C0
C0
C0
C0
C0
C0
C0
F0
ENDCHAR
STARTCHAR backslash
ENCODING 92
SWIDTH 389 0
DWIDTH 7 0
BBX 7 15 0 -1
BITMAP
C0
C0
60
60
20
30
30
10
18
08
0C
0C
04
06
06
ENDCHAR
STARTCHAR bracketright
ENCODING 93
SWIDTH 330 0
DWIDTH 6 0
BBX 4 16 1 -3
BITMAP
F0
30
30
30
30
30
30
30
30
30
30
30
30
30
30
F0
ENDCHAR
STARTCHAR asciicircum
ENCODING 94
SWIDTH 666 0
DWIDTH 12 0
BBX 10 7 1 6
BITMAP
0C00
1E00
1E00
3300
7380
6180
C0C0
ENDCHAR
STARTCHAR underscore
ENCODING 95
SWIDTH 500 0
DWIDTH 9 0
BBX 9 1 0 -3
BITMAP
FF80
ENDCHAR
STARTCHAR grave
ENCODING 96
SWIDTH 260 0
DWIDTH 5 0
BBX 4 2 -1 11
BITMAP
E0
30
ENDCHAR
STARTCHAR a
ENCODING 97
SWIDTH 550 0
DWIDTH 10 0
BBX 8 9 1 0
BITMAP
3C
7E
43
03
3F
C3
C7
FF
7B
ENDCHAR
STARTCHAR b
ENCODING 98
SWIDTH 635 0
DWIDTH 11 0
BBX 9 14 1 0
BITMAP
C000
C000
C000
C000
C000
DE00
FF00
E380
C180
C180
C180
E380
FF00
DE00
ENDCHAR
STARTCHAR c
ENCODING 99
SWIDTH 488 0
DWIDTH 9 0
BBX 8 9 1 0
BITMAP
3C
7F
E2
C0
C0
C0
E2
7E
3F
ENDCHAR
STARTCHAR d
ENCODING 100
SWIDTH 634 0
DWIDTH 11 0
BBX 9 14 1 0
BITMAP
0180
0180
0180
0180
0180
3D80
7F80
E380
C180
C180
C180
E380
7F80
3D80
ENDCHAR
STARTCHAR e
ENCODING 101
SWIDTH 574 0
DWIDTH 10 0
BBX 8 9 1 0
BITMAP
3C
7E
E7
C3
FF
C0
E3
7F
3E
ENDCHAR
STARTCHAR f
ENCODING 102
SWIDTH 324 0
DWIDTH 6 0
BBX 6 14 0 0
BITMAP
1C
3C
30
30
30
FC
FC
30
30
30
30
30
30
30
ENDCHAR
STARTCHAR g
ENCODING 103
SWIDTH 632 0
DWIDTH 11 0
BBX 9 13 1 -4
BITMAP
3F80
6380
C180
C180
C180
C180
E380
7F80
3D80
0180
4380
FF00
3E00
ENDCHAR
STARTCHAR h
ENCODING 104
SWIDTH 584 0
DWIDTH 10 0
BBX 8 14 1 0
BITMAP
C0
C0
C0
C0
C0
DE
FF
E3
C3
C3
C3
C3
C3
C3
ENDCHAR
STARTCHAR i
ENCODING 105
SWIDTH 268 0
DWIDTH 4 0
BBX 2 13 1 0
BITMAP
C0
C0
00
00
C0
C0
C0
C0
C0
C0
C0
C0
C0
ENDCHAR
STARTCHAR j
ENCODING 106
SWIDTH 268 0
DWIDTH 4 0
BBX 4 17 -1 -4
BITMAP
30
30
00
00
30
30
30
30
30
30
30
30
30
30
30
F0
E0
ENDCHAR
STARTCHAR k
ENCODING 107
SWIDTH 543 0
DWIDTH 10 0
BBX 8 14 1 0
BITMAP
C0
C0
C0
C0
C0
C7
CE
DC
F8
F8
FC
DC
CE
C7
ENDCHAR
STARTCHAR l
ENCODING 108
SWIDTH 268 0
DWIDTH 5 0
BBX 2 14 1 0
BITMAP
C0
C0
C0
C0
C0
C0
C0
C0
C0
C0
C0
C0
C0
C0
ENDCHAR
STARTCHAR m
ENCODING 109
SWIDTH 890 0
DWIDTH 16 0
BBX 14 9 1 0
BITMAP
FEF8
E38C
C30C
C30C
C30C
C30C
C30C
C30C
C30C
ENDCHAR
STARTCHAR n
ENCODING 110
SWIDTH 582 0
DWIDTH 10 0
BBX 8 9 1 0
BITMAP
FE
E3
C3
C3
C3
C3
C3
C3
C3
ENDCHAR
STARTCHAR o
ENCODING 111
SWIDTH 610 0
DWIDTH 11 0
BBX 9 9 1 0
BITMAP
3E00
7F00
E380
C180
C180
C180
E380
7F00
3E00
ENDCHAR
STARTCHAR p
ENCODING 112
SWIDTH 633 0
DWIDTH 11 0
BBX 9 13 1 -4
BITMAP
FE00
E300
C180
C180
C180
C180
E380
FF00
DE00
C000
C000
C000
C000
ENDCHAR
STARTCHAR q
ENCODING 113
SWIDTH 632 0
DWIDTH 11 0
BBX 9 13 1 -4
BITMAP
3D80
6380
C180
C180
C180
C180
E380
7F80
3D80
0180
0180
0180
0180
ENDCHAR
STARTCHAR r
ENCODING 114
SWIDTH 364 0
DWIDTH 7 0
BBX 5 9 1 0
BITMAP
D8
F8
E0
C0
C0
C0
C0
C0
C0
ENDCHAR
STARTCHAR s
ENCODING 115
SWIDTH 444 0
DWIDTH 8 0
BBX 7 9 0 0
BITMAP
3C
7E
64
60
3C
06
46
FE
7C
ENDCHAR
STARTCHAR t
ENCODING 116
SWIDTH 340 0
DWIDTH 6 0
BBX 6 12 0 0
BITMAP
30
30
30
FC
FC
30
30
30
30
30
3C
1C
ENDCHAR
STARTCHAR u
ENCODING 117
SWIDTH 582 0
DWIDTH 10 0
BBX 8 9 1 0
BITMAP
C3
C3
C3
C3
C3
C3
E7
FF
7B
ENDCHAR
STARTCHAR v
ENCODING 118
SWIDTH 513 0
DWIDTH 9 0
BBX 9 9 0 0
BITMAP
E180
6380
6300
7300
3700
3600
1E00
1C00
1C00
ENDCHAR
STARTCHAR w
ENCODING 119
SWIDTH 804 0
DWIDTH 14 0
BBX 14 9 0 0
BITMAP
E38C
638C
679C
6798
36D8
34D8
3CF0
1C70
1870
ENDCHAR
STARTCHAR x
ENCODING 120
SWIDTH 537 0
DWIDTH 10 0
BBX 10 9 0 0
BITMAP
E380
7300
3E00
1E00
1C00
1E00
3700
7380
E1C0
ENDCHAR
STARTCHAR y
ENCODING 121
SWIDTH 513 0
DWIDTH 9 0
BBX 9 13 0 -4
BITMAP
E180
6380
6300
3300
3600
3E00
1E00
1C00
0C00
1C00
1800
7800
7000
ENDCHAR
STARTCHAR z
ENCODING 122
SWIDTH 482 0
DWIDTH 9 0
BBX 7 9 1 0
BITMAP
FE
FE
0C
18
30
70
E0
FE
FE
ENDCHAR
STARTCHAR braceleft
ENCODING 123
SWIDTH 330 0
DWIDTH 6 0
BBX 6 16 0 -3
BITMAP
1C
30
30
30
30
30
30
E0
30
30
30
30
30
30
30
1C
ENDCHAR
STARTCHAR bar
ENCODING 124
SWIDTH 222 0
DWIDTH 4 0
BBX 2 18 1 -5
BITMAP
C0
C0
C0
C0
C0
C0
C0
C0
C0
C0
C0
C0
C0
C0
C0
C0
C0
C0
ENDCHAR
STARTCHAR braceright
ENCODING 125
SWIDTH 330 0
DWIDTH 6 0
BBX 5 16 1 -3
BITMAP
E0
F0
30
30
30
30
30
18
38
30
30
30
30
30
F0
E0
ENDCHAR
STARTCHAR asciitilde
ENCODING 126
SWIDTH 666 0
DWIDTH 11 0
BBX 9 3 1 4
BITMAP
7900
FF80
4F00
ENDCHAR
ENDFONT
